<svg fill="none" xmlns="http://www.w3.org/2000/svg" viewBox="2.28 2.37 24.13 33.4"><path fillrule="evenodd" d="M26.402 20.162C26.363 21.215 26.207 22.073 25.661 22.19v1.053c0 0.897 0 1.95 0.39 3.783 0.585 2.574 0.351 5.772 -2.184 7.02S16.926 36.503 11.856 35.216 5.889 29.717 4.875 24.959C4.056 25.154 3.627 24.062 3.198 23.048L2.886 22.307C2.379 21.215 1.911 18.486 2.691 17.511S4.329 17.16 4.329 17.16L3.705 15.405C3.198 12.87 3.276 6.474 7.332 4.797A15.6 15.6 0 0 1 15.405 3.939q2.067 0.195 4.368 0.078L20.357 3.978C21.605 3.9 23.282 3.822 23.945 2.847Q24.491 1.911 25.193 2.808c0.273 0.351 0.195 0.78 0.117 1.209L25.232 4.563q0 0.507 0.117 0.819l0.117 0.273c0.234 0.507 0.39 0.897 0.273 1.482q-0.039 0.39 0.117 0.741T25.973 8.58L25.544 9.204C25.076 9.75 24.452 10.569 24.452 11.154A38.999 38.999 0 0 0 24.959 14.937C25.7 14.859 25.778 15.327 26.051 16.77v0.117a15.6 15.6 0 0 1 0.273 2.808zM20.669 14.625c1.599 -0.117 2.808 0.897 3.12 1.56L23.75 15.912C23.633 14.781 23.477 13.26 22.697 12.441 22.268 11.973 21.722 12.285 20.981 12.753 20.396 13.104 19.656 13.572 18.681 13.767 18.135 13.884 17.238 13.611 16.185 13.338 13.26 12.519 9.204 11.388 8.58 17.238 9.945 14.352 13.065 15.015 14.118 15.912a3.9 3.9 0 0 1 1.287 2.184L17.55 17.94C17.55 16.224 18.876 14.742 20.669 14.625m0.585 11.427 -3.9 0.702a38.999 38.999 0 0 1 -3.822 0.585L13.221 27.26Q12.987 27.182 12.831 27.221C12.246 27.455 13.572 28.04 14.352 28.235l0.351 0.078a9.36 9.36 0 0 0 3.783 0.351C19.812 28.469 21.293 27.845 21.293 26.441L21.254 26.012M10.764 25.466C11.193 24.959 11.583 24.413 13.065 24.023A27.299 27.299 0 0 1 19.968 23.477C21.449 23.633 23.126 24.023 23.75 25.115A11.7 11.7 0 0 0 23.867 20.357a3.12 3.12 0 0 1 -3.237 1.521 3.51 3.51 0 0 1 -3.003 -2.73L15.483 19.305a3.9 3.9 0 0 1 -1.17 2.379 3.9 3.9 0 0 1 -1.911 0.897 3.9 3.9 0 0 1 -2.184 -0.39 3.9 3.9 0 0 1 -1.794 -2.184 7.8 7.8 0 0 0 1.989 5.85l0.312 -0.39m1.17 -9.243a2.613 2.613 0 0 0 -2.652 2.535 2.613 2.613 0 0 0 2.457 2.73C13.104 21.527 14.274 20.396 14.352 18.954S13.299 16.263 11.895 16.224M21.137 15.639a2.613 2.613 0 0 0 -2.652 2.535C18.447 19.656 19.539 20.864 20.942 20.942S23.555 19.851 23.594 18.408 22.541 15.717 21.137 15.639" fill="black"/><path d="M11.778 16.77C10.764 16.731 9.906 17.55 9.867 18.603s0.741 1.95 1.755 1.989 1.872 -0.78 1.911 -1.833S12.792 16.809 11.778 16.77" fill="black"/><path d="M19.11 17.979A1.95 1.95 0 0 1 21.02 16.146c1.014 0.039 1.794 0.936 1.755 1.989S21.878 20.006 20.864 19.968 19.071 19.032 19.11 17.979" fill="black"/></svg>